# xmcd CD database file
#
# Track frame offsets:
#	182
#	16465
#	42875
#	85655
#	113692
#	150355
#	178987
#	200045
#	224245
#	252670
#	269482
#	295332
#
# Disc length: 4315 seconds
#
# Revision: 1
# Processed by: cddbd v1.5.1PL2 Copyright (c) Steve Scherf et al.
# Submitted via: CDex 1.51
#
DISCID=b710d90c
DTITLE=The Brecker Brothers - East River
DYEAR=1997
DGENRE=Jazz
TTITLE0=East River
TTITLE1=Skunk Funk
TTITLE2=Inside Out
TTITLE3=Funky Sea, Funky Dew
TTITLE4=Straphangin'
TTITLE5=Three Some
TTITLE6=Rocks
TTITLE7=Baffled
TTITLE8=Jacknife
TTITLE9=Tee'd Off
TTITLE10=Not Ethiopia
TTITLE11=Sneakin' Up Behind You
EXTD=YEAR: 1997
EXTT0=
EXTT1=
EXTT2=
EXTT3=
EXTT4=
EXTT5=
EXTT6=
EXTT7=
EXTT8=
EXTT9=
EXTT10=
EXTT11=
PLAYORDER=
